<svg width="91" height="91" viewBox="0 0 91 91" fill="none" xmlns="http://www.w3.org/2000/svg">
<path d="M32.9403 19.2815C32.2477 18.589 31.3917 18.0824 30.4514 17.8085C29.5111 17.5347 28.517 17.5025 27.5609 17.7149C26.6049 17.9273 25.7179 18.3775 24.982 19.0237C24.2461 19.6699 23.6852 20.4914 23.351 21.412L1.2026 82.3391C0.884365 83.217 0.781612 84.1584 0.902984 85.0842C1.02436 86.01 1.36631 86.8931 1.90006 87.6592C2.43382 88.4253 3.14377 89.052 3.97019 89.4866C4.7966 89.9212 5.71531 90.1509 6.64901 90.1565C7.33553 90.1548 8.01651 90.0335 8.66135 89.7979L69.5717 67.6495C70.4906 67.313 71.31 66.7503 71.9539 66.0134C72.5979 65.2764 73.0456 64.3891 73.2559 63.4333C73.4661 62.4775 73.4321 61.4841 73.1568 60.545C72.8815 59.6059 72.374 58.7513 71.681 58.0602L32.9403 19.2815ZM6.93167 85.0391C6.7962 85.0893 6.64921 85.0995 6.50811 85.0686C6.36701 85.0378 6.23772 84.967 6.13559 84.8649C6.03345 84.7628 5.96275 84.6335 5.93187 84.4924C5.90099 84.3513 5.91122 84.2043 5.96135 84.0688L12.3654 66.4471L24.5534 78.6309L6.93167 85.0391ZM29.8015 76.724L14.2765 61.1948L20.4654 44.1721L46.8284 70.5351L29.8015 76.724ZM68.344 62.3423C68.3186 62.4677 68.2608 62.5843 68.1765 62.6805C68.0921 62.7767 67.9841 62.8491 67.8631 62.8907L52.0765 68.6409L22.3596 38.9198L28.1098 23.1585C28.1506 23.0371 28.2229 22.9286 28.3192 22.8441C28.4155 22.7597 28.5325 22.7022 28.6582 22.6776C28.7156 22.6701 28.7738 22.6701 28.8312 22.6776C28.9297 22.6771 29.0272 22.6967 29.1179 22.7351C29.2085 22.7736 29.2904 22.8301 29.3585 22.9012L68.1204 61.6631C68.2128 61.7476 68.2819 61.8545 68.3211 61.9734C68.3603 62.0924 68.3681 62.2194 68.344 62.3423ZM54.844 26.8752C54.904 24.7249 55.4263 22.6126 56.3754 20.6821C58.4595 16.514 62.4082 14.219 67.5003 14.219C70.6517 14.219 72.7863 13.0631 74.0309 10.6837C74.6626 9.41914 75.0247 8.0371 75.094 6.62524C75.094 5.95392 75.3607 5.31008 75.8354 4.83538C76.3101 4.36068 76.9539 4.09399 77.6253 4.09399C78.2966 4.09399 78.9404 4.36068 79.4151 4.83538C79.8898 5.31008 80.1565 5.95392 80.1565 6.62524C80.1565 11.0043 77.5114 19.2815 67.5003 19.2815C64.3489 19.2815 62.2142 20.4374 60.9696 22.8168C60.3358 24.0806 59.9736 25.463 59.9065 26.8752C59.9065 27.5466 59.6398 28.1904 59.1651 28.6651C58.6904 29.1398 58.0466 29.4065 57.3753 29.4065C56.7039 29.4065 56.0601 29.1398 55.5854 28.6651C55.1107 28.1904 54.844 27.5466 54.844 26.8752ZM44.719 13.3752V3.25024C44.719 2.57891 44.9857 1.93508 45.4604 1.46038C45.9351 0.985679 46.5789 0.718994 47.2503 0.718994C47.9216 0.718994 48.5654 0.985679 49.0401 1.46038C49.5148 1.93508 49.7815 2.57891 49.7815 3.25024V13.3752C49.7815 14.0466 49.5148 14.6904 49.0401 15.1651C48.5654 15.6398 47.9216 15.9065 47.2503 15.9065C46.5789 15.9065 45.9351 15.6398 45.4604 15.1651C44.9857 14.6904 44.719 14.0466 44.719 13.3752ZM86.164 48.7115C86.4127 48.9432 86.6122 49.2227 86.7505 49.5332C86.8889 49.8437 86.9633 50.1789 86.9693 50.5187C86.9753 50.8586 86.9127 51.1962 86.7854 51.5114C86.6581 51.8266 86.4686 52.1129 86.2283 52.3532C85.9879 52.5936 85.7016 52.7831 85.3864 52.9104C85.0712 53.0377 84.7336 53.1002 84.3937 53.0942C84.0539 53.0882 83.7187 53.0139 83.4082 52.8755C83.0977 52.7372 82.8182 52.5377 82.5865 52.289L75.8365 45.539C75.3894 45.0592 75.146 44.4245 75.1575 43.7687C75.1691 43.113 75.4348 42.4873 75.8985 42.0235C76.3623 41.5598 76.988 41.2941 77.6437 41.2825C78.2995 41.271 78.9342 41.5144 79.414 41.9615L86.164 48.7115ZM88.5518 29.2757L78.4268 32.6507C78.1097 32.7636 77.7733 32.8121 77.4372 32.7933C77.1011 32.7746 76.7722 32.689 76.4696 32.5416C76.167 32.3942 75.8968 32.1879 75.6749 31.9349C75.453 31.6818 75.2838 31.387 75.1771 31.0677C75.0705 30.7484 75.0287 30.4111 75.054 30.0755C75.0793 29.7398 75.1714 29.4126 75.3247 29.113C75.478 28.8133 75.6896 28.5473 75.9469 28.3304C76.2043 28.1135 76.5024 27.9501 76.8237 27.8498L86.9487 24.4748C87.5813 24.2773 88.2661 24.3357 88.8561 24.6376C89.4461 24.9395 89.8941 25.4607 90.104 26.0893C90.3139 26.7179 90.2689 27.4037 89.9787 27.9995C89.6885 28.5953 89.1762 29.0535 88.5518 29.2757Z" fill="#4E6DB3"/>
</svg>
